<svg xmlns="http://www.w3.org/2000/svg" xmlns:xlink="http://www.w3.org/1999/xlink" width="300" zoomAndPan="magnify" viewBox="0 0 224.87999 262.499992" height="350" preserveAspectRatio="xMidYMid meet" version="1.0"><defs><clipPath id="d3e46aea3c"><path d="M 21.726562 0 L 202.132812 0 L 202.132812 262 L 21.726562 262 Z M 21.726562 0 " clip-rule="nonzero"/></clipPath><clipPath id="99d9eb4149"><path d="M 106.566406 78.515625 L 108.8125 78.515625 L 108.8125 130.957031 L 106.566406 130.957031 Z M 106.566406 78.515625 " clip-rule="nonzero"/></clipPath></defs><g clip-path="url(#d3e46aea3c)"><path fill="#1e90ff" d="M 202.273438 261.746094 L 61.304688 261.746094 L 61.304688 53.390625 L 24.308594 90.386719 L 24.308594 260.449219 L 21.726562 260.449219 L 21.726562 89.316406 L 61.304688 49.738281 L 61.304688 8.800781 L 81.773438 29.265625 L 110.769531 0.273438 L 202.265625 91.773438 L 202.265625 261.746094 Z M 63.890625 259.164062 L 199.683594 259.164062 L 199.683594 92.84375 L 110.769531 3.929688 L 83.601562 31.097656 L 153.640625 101.136719 L 153.640625 176.6875 L 151.054688 176.6875 L 151.054688 102.203125 L 81.777344 32.925781 L 63.890625 50.808594 Z M 63.890625 15.039062 L 63.890625 47.15625 L 79.949219 31.097656 Z M 132.125 260.433594 L 131.257812 197.488281 L 91.875 197.488281 L 91.875 260.453125 L 94.457031 260.453125 L 94.457031 200.074219 L 128.710938 200.074219 L 129.546875 260.46875 Z M 132.125 260.433594 " fill-opacity="1" fill-rule="nonzero"/></g><g clip-path="url(#99d9eb4149)"><path fill="#ffffff" d="M 106.566406 78.515625 L 108.8125 78.515625 L 108.8125 130.960938 L 106.566406 130.960938 Z M 106.566406 78.515625 " fill-opacity="1" fill-rule="nonzero"/></g></svg>