<svg xmlns="http://www.w3.org/2000/svg" xmlns:xlink="http://www.w3.org/1999/xlink" width="500" zoomAndPan="magnify" viewBox="0 0 375 262.499992" height="350" preserveAspectRatio="xMidYMid meet" version="1.0"><defs><g/><clipPath id="f5fe715a40"><path d="M 0.355469 0 L 180.675781 0 L 180.675781 261.523438 L 0.355469 261.523438 Z M 0.355469 0 " clip-rule="nonzero"/></clipPath><clipPath id="5eb1deb030"><path d="M 174.734375 130.859375 L 180.703125 130.859375 L 180.703125 218.261719 L 174.734375 218.261719 Z M 174.734375 130.859375 " clip-rule="nonzero"/></clipPath><clipPath id="b3eca50752"><path d="M 342 192 L 374.640625 192 L 374.640625 214 L 342 214 Z M 342 192 " clip-rule="nonzero"/></clipPath></defs><g clip-path="url(#f5fe715a40)"><path fill="#1e90ff" d="M 180.707031 261.460938 L 39.894531 261.460938 L 39.894531 53.332031 L 2.9375 90.285156 L 2.9375 260.164062 L 0.355469 260.164062 L 0.355469 89.21875 L 39.894531 49.683594 L 39.894531 8.789062 L 60.335938 29.234375 L 89.300781 0.273438 L 180.699219 91.671875 L 180.699219 261.460938 Z M 42.472656 258.878906 L 178.121094 258.878906 L 178.121094 92.738281 L 89.300781 3.921875 L 62.164062 31.058594 L 132.125 101.023438 L 132.125 176.492188 L 129.546875 176.492188 L 129.546875 102.089844 L 60.34375 32.886719 L 42.472656 50.75 Z M 42.472656 15.019531 L 42.472656 47.101562 L 58.515625 31.058594 Z M 110.632812 260.148438 L 109.769531 197.273438 L 70.425781 197.273438 L 70.425781 260.167969 L 73.007812 260.167969 L 73.007812 199.851562 L 107.222656 199.851562 L 108.058594 260.183594 Z M 110.632812 260.148438 " fill-opacity="1" fill-rule="nonzero"/></g><g clip-path="url(#5eb1deb030)"><path fill="#363636" d="M 174.734375 130.859375 L 180.703125 130.859375 L 180.703125 218.253906 L 174.734375 218.253906 Z M 174.734375 130.859375 " fill-opacity="1" fill-rule="nonzero"/></g><g fill="#1e90ff" fill-opacity="1"><g transform="translate(137.030361, 186.214008)"><g><path d="M 4.625 0 L 4.625 -51.453125 L 10.515625 -51.453125 L 10.515625 -4.703125 L 21.90625 -4.703125 L 21.90625 0 Z M 4.625 0 "/></g></g></g><g fill="#1e90ff" fill-opacity="1"><g transform="translate(167.752003, 186.214008)"><g><path d="M 10.515625 -23.296875 L 10.515625 -4.703125 L 23.296875 -4.703125 L 23.296875 0 L 4.625 0 L 4.625 -51.453125 L 23.078125 -51.453125 L 23.078125 -46.75 L 10.515625 -46.75 L 10.515625 -28 L 21.96875 -28 L 21.96875 -23.296875 Z M 10.515625 -23.296875 "/></g></g></g><g fill="#1e90ff" fill-opacity="1"><g transform="translate(201.854329, 186.214008)"><g><path d="M 4.625 0 L 4.625 -51.453125 L 10.515625 -51.453125 L 10.515625 0 Z M 4.625 0 "/></g></g></g><g fill="#1e90ff" fill-opacity="1"><g transform="translate(224.712191, 186.214008)"><g><path d="M 20.4375 -11.546875 C 20.4375 -15.460938 19.113281 -18.472656 16.46875 -20.578125 L 10.578125 -24.921875 C 6.171875 -28.054688 3.96875 -32.6875 3.96875 -38.8125 C 3.96875 -43.90625 4.9375 -47.46875 6.875 -49.5 C 8.8125 -51.53125 11.457031 -52.546875 14.8125 -52.546875 C 18.164062 -52.546875 20.773438 -51.601562 22.640625 -49.71875 C 24.503906 -47.832031 25.628906 -44.414062 26.015625 -39.46875 L 20.4375 -38.21875 C 20.238281 -44.488281 18.410156 -47.625 14.953125 -47.625 C 11.503906 -47.625 9.78125 -44.953125 9.78125 -39.609375 C 9.78125 -37.265625 10.035156 -35.351562 10.546875 -33.875 C 11.054688 -32.40625 12.050781 -31.085938 13.53125 -29.921875 L 19.328125 -25.578125 C 20.703125 -24.597656 21.804688 -23.664062 22.640625 -22.78125 C 23.472656 -21.90625 24.269531 -20.5 25.03125 -18.5625 C 25.789062 -16.625 26.171875 -14.332031 26.171875 -11.6875 C 26.171875 -6.976562 25.148438 -3.664062 23.109375 -1.75 C 21.078125 0.15625 18.320312 1.109375 14.84375 1.109375 C 11.363281 1.109375 8.644531 -0.015625 6.6875 -2.265625 C 4.726562 -4.523438 3.53125 -8.546875 3.09375 -14.328125 L 8.59375 -15.28125 C 8.789062 -11.125 9.390625 -8.160156 10.390625 -6.390625 C 11.398438 -4.628906 12.8125 -3.75 14.625 -3.75 C 18.5 -3.75 20.4375 -6.347656 20.4375 -11.546875 Z M 20.4375 -11.546875 "/></g></g></g><g fill="#1e90ff" fill-opacity="1"><g transform="translate(261.680754, 186.214008)"><g><path d="M 21.09375 -51.453125 L 26.90625 -51.453125 L 26.90625 -15.359375 C 26.90625 -9.140625 25.910156 -4.835938 23.921875 -2.453125 C 21.941406 -0.078125 19.132812 1.109375 15.5 1.109375 C 11.875 1.109375 9.066406 -0.078125 7.078125 -2.453125 C 5.097656 -4.835938 4.109375 -9.140625 4.109375 -15.359375 L 4.109375 -51.453125 L 9.921875 -51.453125 L 9.921875 -14.265625 C 9.921875 -10.296875 10.410156 -7.535156 11.390625 -5.984375 C 12.367188 -4.441406 13.726562 -3.671875 15.46875 -3.671875 C 17.207031 -3.671875 18.578125 -4.441406 19.578125 -5.984375 C 20.585938 -7.535156 21.09375 -10.296875 21.09375 -14.265625 Z M 21.09375 -51.453125 "/></g></g></g><g fill="#1e90ff" fill-opacity="1"><g transform="translate(300.413147, 186.214008)"><g><path d="M 4.625 0 L 4.625 -51.453125 L 13.75 -51.453125 C 17.375 -51.453125 20.1875 -50.300781 22.1875 -48 C 24.195312 -45.695312 25.203125 -41.554688 25.203125 -35.578125 L 25.203125 -35.203125 C 25.203125 -27.753906 23.390625 -23.023438 19.765625 -21.015625 L 25.875 0 L 19.84375 0 L 14.109375 -19.703125 L 10.515625 -19.703125 L 10.515625 0 Z M 19.40625 -34.46875 L 19.40625 -36.671875 C 19.40625 -40.453125 18.898438 -43.078125 17.890625 -44.546875 C 16.890625 -46.015625 15.507812 -46.75 13.75 -46.75 L 10.515625 -46.75 L 10.515625 -24.328125 L 13.75 -24.328125 C 17.519531 -24.328125 19.40625 -27.707031 19.40625 -34.46875 Z M 19.40625 -34.46875 "/></g></g></g><g fill="#1e90ff" fill-opacity="1"><g transform="translate(336.499786, 186.214008)"><g><path d="M 10.515625 -23.296875 L 10.515625 -4.703125 L 23.296875 -4.703125 L 23.296875 0 L 4.625 0 L 4.625 -51.453125 L 23.078125 -51.453125 L 23.078125 -46.75 L 10.515625 -46.75 L 10.515625 -28 L 21.96875 -28 L 21.96875 -23.296875 Z M 10.515625 -23.296875 "/></g></g></g><g fill="#ffffff" fill-opacity="1"><g transform="translate(126.104504, 214.458705)"><g><path d="M 30.503906 -12.710938 C 29.984375 -13.179688 29.230469 -13.179688 28.761719 -12.664062 C 28.574219 -12.519531 13.320312 3.011719 3.199219 -4.378906 C 0.09375 -6.636719 3.105469 -12.519531 3.152344 -12.566406 C 3.4375 -13.179688 3.199219 -13.886719 2.589844 -14.214844 C 1.976562 -14.5 1.269531 -14.308594 0.941406 -13.699219 C 0.753906 -13.414062 -3.058594 -5.929688 1.742188 -2.402344 C 3.953125 -0.753906 6.683594 0.140625 9.460938 0.09375 C 19.628906 0.09375 29.9375 -10.402344 30.503906 -10.96875 C 30.738281 -11.203125 30.878906 -11.484375 30.878906 -11.816406 C 30.832031 -12.144531 30.738281 -12.472656 30.503906 -12.710938 Z M 0.421875 -16.429688 C 0.613281 -16.429688 0.800781 -16.476562 0.988281 -16.570312 C 2.117188 -17.132812 3.105469 -17.886719 4 -18.78125 C 4.472656 -19.300781 4.425781 -20.050781 3.953125 -20.523438 C 3.4375 -20.996094 2.683594 -20.996094 2.210938 -20.476562 C 1.507812 -19.769531 0.707031 -19.207031 -0.1875 -18.734375 C -0.660156 -18.5 -0.941406 -17.886719 -0.800781 -17.371094 C -0.660156 -16.804688 -0.140625 -16.429688 0.421875 -16.429688 Z M 0.421875 -16.429688 "/></g></g></g><g fill="#ffffff" fill-opacity="1"><g transform="translate(155.001035, 214.458705)"><g><path d="M 51.636719 -11.957031 C 51.121094 -12.378906 50.320312 -12.285156 49.894531 -11.769531 C 49.800781 -11.625 39.304688 1.175781 29.65625 -4.425781 C 28.382812 -5.320312 27.394531 -6.542969 26.878906 -7.957031 C 25.984375 -9.742188 24.902344 -11.910156 21.886719 -11.4375 C 20.335938 -11.203125 17.933594 -9.226562 15.910156 -6.964844 C 15.816406 -6.824219 15.628906 -6.777344 15.488281 -6.824219 C 15.34375 -6.871094 15.203125 -6.964844 15.203125 -7.15625 C 14.828125 -9.273438 13.414062 -11.0625 11.4375 -11.910156 C 9.839844 -12.332031 7.25 -12.804688 1.835938 -7.4375 C 1.554688 -7.203125 1.175781 -7.296875 1.222656 -7.671875 C 1.222656 -7.859375 2.164062 -11.675781 2.164062 -11.675781 C 2.304688 -12.332031 1.882812 -12.992188 1.222656 -13.179688 C 0.566406 -13.320312 -0.09375 -12.898438 -0.28125 -12.238281 L -2.542969 -2.304688 C -2.683594 -1.742188 -2.402344 -1.175781 -1.882812 -0.894531 C -1.316406 -0.660156 -0.707031 -0.800781 -0.375 -1.269531 C 5.929688 -9.179688 9.039062 -9.933594 10.308594 -9.742188 C 11.578125 -9.507812 13.273438 -6.964844 13.085938 -2.871094 C 13.085938 -2.304688 13.414062 -1.789062 13.980469 -1.648438 C 14.546875 -1.460938 15.109375 -1.695312 15.390625 -2.164062 C 17.324219 -5.460938 21.089844 -8.800781 22.265625 -8.992188 C 23.394531 -9.179688 23.722656 -8.753906 24.664062 -6.871094 C 25.371094 -4.988281 26.691406 -3.390625 28.382812 -2.304688 C 30.363281 -1.128906 32.621094 -0.472656 34.925781 -0.472656 C 43.917969 -0.472656 51.449219 -9.695312 51.828125 -10.214844 C 52.25 -10.734375 52.15625 -11.53125 51.636719 -11.957031 Z M 51.636719 -11.957031 "/></g></g></g><g fill="#ffffff" fill-opacity="1"><g transform="translate(204.5581, 214.458705)"><g><path d="M 34.457031 -13.039062 C 33.9375 -13.507812 33.1875 -13.507812 32.667969 -13.039062 C 25.324219 -5.695312 15.015625 -4.753906 10.027344 -6.449219 C 10.636719 -8.992188 10.589844 -11.910156 9.085938 -12.757812 C 8.285156 -13.226562 6.964844 -13.273438 5.460938 -10.734375 C 4.332031 -8.847656 4.753906 -6.871094 6.589844 -5.460938 C 6.683594 -5.367188 6.824219 -5.273438 6.964844 -5.179688 C 6.777344 -4.753906 6.496094 -4.332031 6.167969 -4 C 5.601562 -3.34375 4.566406 -2.589844 2.636719 -3.625 C 1.222656 -4.332031 0.753906 -5.507812 1.175781 -7.109375 C 1.835938 -9.554688 4.285156 -11.816406 5.128906 -11.769531 C 5.835938 -11.722656 6.355469 -12.285156 6.402344 -12.945312 C 6.402344 -13.652344 5.835938 -14.214844 5.179688 -14.214844 C 5.128906 -14.214844 5.128906 -14.214844 5.128906 -14.214844 C 2.777344 -14.214844 -0.375 -11.015625 -1.222656 -7.71875 C -1.929688 -4.988281 -0.941406 -2.683594 1.460938 -1.414062 C 2.496094 -0.894531 3.4375 -0.660156 4.378906 -0.660156 C 6.261719 -0.660156 7.90625 -1.742188 9.039062 -3.8125 C 9.085938 -3.90625 9.132812 -4.046875 9.226562 -4.140625 C 15.109375 -2.210938 26.3125 -3.199219 34.457031 -11.296875 C 34.925781 -11.769531 34.925781 -12.566406 34.457031 -13.039062 Z M 7.765625 -7.71875 C 7.109375 -8.378906 7.296875 -8.992188 7.578125 -9.460938 C 7.71875 -9.695312 7.8125 -9.839844 7.90625 -9.980469 C 7.957031 -9.414062 7.957031 -8.566406 7.765625 -7.71875 Z M 7.53125 -16.804688 C 7.71875 -16.804688 7.957031 -16.851562 8.144531 -16.992188 C 11.675781 -18.96875 12.378906 -21.371094 12.472656 -22.640625 C 12.566406 -24.148438 12.003906 -25.558594 10.875 -26.40625 C 10.355469 -26.832031 9.554688 -26.738281 9.132812 -26.21875 C 8.707031 -25.703125 8.800781 -24.902344 9.367188 -24.476562 C 9.695312 -24.195312 10.074219 -23.628906 9.980469 -22.828125 C 9.933594 -22.078125 9.460938 -20.570312 6.917969 -19.109375 C 6.308594 -18.78125 6.121094 -18.027344 6.449219 -17.417969 C 6.683594 -17.039062 7.109375 -16.804688 7.53125 -16.804688 Z M 7.53125 -16.804688 "/></g></g></g><g fill="#ffffff" fill-opacity="1"><g transform="translate(237.266708, 214.458705)"><g><path d="M 41.660156 -11.910156 C 41.421875 -12.144531 41.09375 -12.285156 40.8125 -12.285156 C 40.480469 -12.285156 40.152344 -12.144531 39.917969 -11.910156 C 35.964844 -7.957031 27.867188 -3.90625 21.371094 -4.046875 C 18.78125 -3.953125 16.238281 -4.941406 14.402344 -6.824219 C 14.355469 -6.871094 14.261719 -6.964844 14.214844 -7.0625 C 14.167969 -7.203125 14.167969 -7.34375 14.214844 -7.53125 C 15.15625 -9.179688 15.722656 -11.0625 15.769531 -12.992188 C 15.769531 -13.933594 15.203125 -14.78125 14.308594 -15.15625 C 13.085938 -15.816406 11.484375 -15.488281 10.683594 -14.308594 C 9.601562 -12.757812 9.980469 -9.839844 11.0625 -7.53125 C 11.109375 -7.34375 11.109375 -7.203125 11.0625 -7.015625 C 10.308594 -5.835938 9.414062 -4.800781 8.425781 -3.859375 C 7.4375 -2.964844 6.023438 -2.070312 4.941406 -2.683594 C 2.542969 -4.988281 2.496094 -10.683594 2.683594 -12.664062 C 2.730469 -13.320312 2.257812 -13.933594 1.601562 -13.980469 C 0.941406 -14.074219 0.328125 -13.605469 0.234375 -12.898438 C 0.234375 -12.566406 -0.566406 -4.332031 3.34375 -0.753906 C 3.390625 -0.707031 3.484375 -0.660156 3.53125 -0.660156 C 4.1875 -0.234375 4.941406 0 5.695312 0 C 6.730469 0 7.71875 -0.328125 8.566406 -0.894531 C 9.886719 -1.789062 11.0625 -2.917969 12.050781 -4.1875 C 12.238281 -4.378906 12.519531 -4.519531 12.804688 -4.519531 C 13.085938 -4.519531 13.367188 -4.425781 13.558594 -4.1875 C 15.722656 -2.449219 18.5 -1.507812 21.324219 -1.554688 C 28.855469 -1.363281 37.375 -5.882812 41.660156 -10.167969 C 41.894531 -10.402344 42.035156 -10.734375 42.035156 -11.0625 C 42.035156 -11.390625 41.894531 -11.675781 41.660156 -11.910156 Z M 12.851562 -10.542969 C 12.804688 -10.449219 12.664062 -10.449219 12.664062 -10.542969 C 12.425781 -11.296875 12.425781 -12.144531 12.710938 -12.898438 C 12.804688 -12.992188 12.898438 -13.085938 13.039062 -13.085938 C 13.132812 -13.039062 13.226562 -12.992188 13.320312 -12.898438 C 13.320312 -12.050781 13.179688 -11.25 12.851562 -10.542969 Z M 12.851562 -10.542969 "/></g></g></g><g fill="#ffffff" fill-opacity="1"><g transform="translate(276.79941, 214.458705)"><g><path d="M 39.492188 -12.097656 C 39.257812 -12.332031 38.976562 -12.519531 38.644531 -12.519531 C 38.316406 -12.566406 37.988281 -12.472656 37.75 -12.285156 C 37.5625 -12.144531 19.441406 2.257812 4.332031 -3.953125 C 1.269531 -5.226562 1.128906 -6.871094 1.222656 -7.765625 C 1.222656 -7.90625 1.269531 -8.050781 1.414062 -8.144531 C 1.507812 -8.238281 1.695312 -8.238281 1.835938 -8.191406 C 4.894531 -8.003906 7.957031 -8.800781 10.589844 -10.449219 C 12.851562 -11.910156 13.226562 -13.507812 13.085938 -14.546875 C 12.992188 -16.238281 11.625 -17.605469 9.886719 -17.652344 C 6.167969 -17.839844 -0.046875 -13.414062 -1.082031 -8.707031 C -1.507812 -6.964844 -1.460938 -3.671875 3.390625 -1.695312 C 6.355469 -0.472656 9.460938 0.09375 12.617188 0.09375 C 26.125 0.09375 38.644531 -9.839844 39.304688 -10.355469 C 39.539062 -10.542969 39.730469 -10.875 39.730469 -11.15625 C 39.777344 -11.484375 39.683594 -11.816406 39.492188 -12.097656 Z M 2.917969 -11.0625 C 4.753906 -13.605469 7.8125 -15.296875 9.742188 -15.15625 C 10.261719 -15.15625 10.542969 -14.96875 10.636719 -14.261719 C 10.683594 -13.792969 10.167969 -13.132812 9.226562 -12.519531 C 7.296875 -11.25 1.507812 -9.179688 2.917969 -11.0625 Z M 2.917969 -11.0625 "/></g></g></g><g fill="#ffffff" fill-opacity="1"><g transform="translate(314.496667, 214.458705)"><g><path d="M 30.503906 -12.710938 C 29.984375 -13.179688 29.230469 -13.179688 28.761719 -12.664062 C 28.574219 -12.519531 13.320312 3.011719 3.199219 -4.378906 C 0.09375 -6.636719 3.105469 -12.519531 3.152344 -12.566406 C 3.4375 -13.179688 3.199219 -13.886719 2.589844 -14.214844 C 1.976562 -14.5 1.269531 -14.308594 0.941406 -13.699219 C 0.753906 -13.414062 -3.058594 -5.929688 1.742188 -2.402344 C 3.953125 -0.753906 6.683594 0.140625 9.460938 0.09375 C 19.628906 0.09375 29.9375 -10.402344 30.503906 -10.96875 C 30.738281 -11.203125 30.878906 -11.484375 30.878906 -11.816406 C 30.832031 -12.144531 30.738281 -12.472656 30.503906 -12.710938 Z M 0.421875 -16.429688 C 0.613281 -16.429688 0.800781 -16.476562 0.988281 -16.570312 C 2.117188 -17.132812 3.105469 -17.886719 4 -18.78125 C 4.472656 -19.300781 4.425781 -20.050781 3.953125 -20.523438 C 3.4375 -20.996094 2.683594 -20.996094 2.210938 -20.476562 C 1.507812 -19.769531 0.707031 -19.207031 -0.1875 -18.734375 C -0.660156 -18.5 -0.941406 -17.886719 -0.800781 -17.371094 C -0.660156 -16.804688 -0.140625 -16.429688 0.421875 -16.429688 Z M 0.421875 -16.429688 "/></g></g></g><g clip-path="url(#b3eca50752)"><g fill="#ffffff" fill-opacity="1"><g transform="translate(343.393198, 214.458705)"><g><path d="M 32.292969 -13.039062 C 32.054688 -13.273438 31.773438 -13.367188 31.445312 -13.367188 C 31.113281 -13.367188 30.785156 -13.273438 30.550781 -13.039062 C 26.03125 -8.753906 20.476562 -5.742188 14.402344 -4.285156 C 14.167969 -4.1875 13.886719 -4.285156 13.746094 -4.472656 C 13.605469 -4.707031 13.558594 -4.941406 13.699219 -5.179688 C 14.546875 -6.824219 14.355469 -8.800781 13.273438 -10.308594 C 12.617188 -11.203125 11.769531 -11.957031 10.78125 -12.519531 C 9.460938 -13.414062 8.003906 -14.449219 7.957031 -15.535156 C 8.003906 -16.144531 8.238281 -16.710938 8.660156 -17.179688 L 11.203125 -19.582031 C 11.675781 -20.050781 11.722656 -20.804688 11.296875 -21.277344 C 10.875 -21.792969 10.167969 -21.886719 9.601562 -21.464844 C 8.613281 -20.710938 7.671875 -19.863281 6.871094 -18.875 L -0.375 -12.097656 C -0.707031 -11.816406 -0.847656 -11.34375 -0.753906 -10.921875 C -0.660156 -10.449219 -0.328125 -10.121094 0.09375 -9.980469 C 0.519531 -9.886719 0.988281 -9.980469 1.316406 -10.308594 L 4.894531 -13.652344 C 5.082031 -13.839844 5.320312 -13.886719 5.554688 -13.886719 C 5.789062 -13.839844 5.976562 -13.699219 6.074219 -13.507812 C 6.964844 -12.285156 8.097656 -11.25 9.367188 -10.496094 C 10.074219 -10.074219 10.683594 -9.601562 11.203125 -8.992188 C 11.675781 -8.472656 11.910156 -7.765625 11.769531 -7.0625 C 11.625 -6.355469 11.203125 -5.742188 10.589844 -5.414062 C 7.578125 -3.71875 3.765625 -4.519531 1.695312 -7.296875 C 1.363281 -7.8125 0.613281 -8.003906 0.046875 -7.625 C -0.519531 -7.296875 -0.707031 -6.589844 -0.375 -5.976562 C 1.175781 -3.296875 3.953125 -1.554688 7.0625 -1.316406 C 7.859375 -1.175781 8.613281 -1.128906 9.414062 -1.128906 C 17.371094 -1.128906 27.160156 -6.121094 32.292969 -11.296875 C 32.761719 -11.769531 32.761719 -12.566406 32.292969 -13.039062 Z M 32.292969 -13.039062 "/></g></g></g></g></svg>