<svg xmlns="http://www.w3.org/2000/svg" xmlns:xlink="http://www.w3.org/1999/xlink" width="500" zoomAndPan="magnify" viewBox="0 0 375 262.499992" height="350" preserveAspectRatio="xMidYMid meet" version="1.0"><defs><g/><clipPath id="97f4a1d3cd"><path d="M 0.355469 0 L 180.761719 0 L 180.761719 262 L 0.355469 262 Z M 0.355469 0 " clip-rule="nonzero"/></clipPath><clipPath id="1db1e0e9bd"><path d="M 177.90625 131 L 181.648438 131 L 181.648438 218.496094 L 177.90625 218.496094 Z M 177.90625 131 " clip-rule="nonzero"/></clipPath><clipPath id="d7d4a60a85"><path d="M 342 192 L 374.640625 192 L 374.640625 214 L 342 214 Z M 342 192 " clip-rule="nonzero"/></clipPath></defs><g clip-path="url(#97f4a1d3cd)"><path fill="#1e90ff" d="M 180.902344 261.746094 L 39.9375 261.746094 L 39.9375 53.390625 L 2.941406 90.386719 L 2.941406 260.449219 L 0.355469 260.449219 L 0.355469 89.316406 L 39.9375 49.738281 L 39.9375 8.800781 L 60.402344 29.265625 L 89.398438 0.273438 L 180.898438 91.773438 L 180.898438 261.746094 Z M 42.519531 259.164062 L 178.3125 259.164062 L 178.3125 92.84375 L 89.398438 3.929688 L 62.230469 31.097656 L 132.269531 101.136719 L 132.269531 176.6875 L 129.6875 176.6875 L 129.6875 102.203125 L 60.40625 32.925781 L 42.519531 50.808594 Z M 42.519531 15.039062 L 42.519531 47.15625 L 58.578125 31.097656 Z M 110.753906 260.433594 L 109.886719 197.488281 L 70.503906 197.488281 L 70.503906 260.453125 L 73.085938 260.453125 L 73.085938 200.074219 L 107.339844 200.074219 L 108.175781 260.46875 Z M 110.753906 260.433594 " fill-opacity="1" fill-rule="nonzero"/></g><g clip-path="url(#1db1e0e9bd)"><path fill="#ffffff" d="M 177.90625 131 L 181.648438 131 L 181.648438 218.503906 L 177.90625 218.503906 Z M 177.90625 131 " fill-opacity="1" fill-rule="nonzero"/></g><g fill="#1e90ff" fill-opacity="1"><g transform="translate(137.177428, 186.014419)"><g><path d="M 4.640625 0 L 4.640625 -51.5 L 10.515625 -51.5 L 10.515625 -4.703125 L 21.921875 -4.703125 L 21.921875 0 Z M 4.640625 0 "/></g></g></g><g fill="#1e90ff" fill-opacity="1"><g transform="translate(167.932122, 186.014419)"><g><path d="M 10.515625 -23.328125 L 10.515625 -4.703125 L 23.328125 -4.703125 L 23.328125 0 L 4.640625 0 L 4.640625 -51.5 L 23.109375 -51.5 L 23.109375 -46.796875 L 10.515625 -46.796875 L 10.515625 -28.03125 L 22 -28.03125 L 22 -23.328125 Z M 10.515625 -23.328125 "/></g></g></g><g fill="#1e90ff" fill-opacity="1"><g transform="translate(202.071136, 186.014419)"><g><path d="M 4.640625 0 L 4.640625 -51.5 L 10.515625 -51.5 L 10.515625 0 Z M 4.640625 0 "/></g></g></g><g fill="#1e90ff" fill-opacity="1"><g transform="translate(224.95359, 186.014419)"><g><path d="M 20.453125 -11.546875 C 20.453125 -15.472656 19.128906 -18.492188 16.484375 -20.609375 L 10.59375 -24.9375 C 6.175781 -28.082031 3.96875 -32.71875 3.96875 -38.84375 C 3.96875 -43.945312 4.9375 -47.515625 6.875 -49.546875 C 8.8125 -51.585938 11.457031 -52.609375 14.8125 -52.609375 C 18.175781 -52.609375 20.789062 -51.660156 22.65625 -49.765625 C 24.519531 -47.878906 25.648438 -44.460938 26.046875 -39.515625 L 20.453125 -38.265625 C 20.253906 -44.535156 18.425781 -47.671875 14.96875 -47.671875 C 11.507812 -47.671875 9.78125 -45 9.78125 -39.65625 C 9.78125 -37.300781 10.035156 -35.390625 10.546875 -33.921875 C 11.066406 -32.453125 12.0625 -31.128906 13.53125 -29.953125 L 19.34375 -25.609375 C 20.71875 -24.628906 21.820312 -23.695312 22.65625 -22.8125 C 23.488281 -21.925781 24.285156 -20.515625 25.046875 -18.578125 C 25.804688 -16.640625 26.1875 -14.347656 26.1875 -11.703125 C 26.1875 -6.992188 25.171875 -3.679688 23.140625 -1.765625 C 21.109375 0.148438 18.347656 1.109375 14.859375 1.109375 C 11.378906 1.109375 8.65625 -0.0195312 6.6875 -2.28125 C 4.726562 -4.539062 3.53125 -8.5625 3.09375 -14.34375 L 8.609375 -15.296875 C 8.804688 -11.128906 9.40625 -8.160156 10.40625 -6.390625 C 11.414062 -4.628906 12.828125 -3.75 14.640625 -3.75 C 18.515625 -3.75 20.453125 -6.347656 20.453125 -11.546875 Z M 20.453125 -11.546875 "/></g></g></g><g fill="#1e90ff" fill-opacity="1"><g transform="translate(261.961925, 186.014419)"><g><path d="M 21.109375 -51.5 L 26.921875 -51.5 L 26.921875 -15.375 C 26.921875 -9.144531 25.925781 -4.835938 23.9375 -2.453125 C 21.957031 -0.078125 19.148438 1.109375 15.515625 1.109375 C 11.890625 1.109375 9.082031 -0.078125 7.09375 -2.453125 C 5.113281 -4.835938 4.125 -9.144531 4.125 -15.375 L 4.125 -51.5 L 9.9375 -51.5 L 9.9375 -14.28125 C 9.9375 -10.300781 10.425781 -7.535156 11.40625 -5.984375 C 12.382812 -4.441406 13.742188 -3.671875 15.484375 -3.671875 C 17.222656 -3.671875 18.59375 -4.441406 19.59375 -5.984375 C 20.601562 -7.535156 21.109375 -10.300781 21.109375 -14.28125 Z M 21.109375 -51.5 "/></g></g></g><g fill="#1e90ff" fill-opacity="1"><g transform="translate(300.735989, 186.014419)"><g><path d="M 4.640625 0 L 4.640625 -51.5 L 13.765625 -51.5 C 17.390625 -51.5 20.207031 -50.347656 22.21875 -48.046875 C 24.226562 -45.742188 25.234375 -41.597656 25.234375 -35.609375 L 25.234375 -35.25 C 25.234375 -27.789062 23.421875 -23.054688 19.796875 -21.046875 L 25.90625 0 L 19.859375 0 L 14.125 -19.71875 L 10.515625 -19.71875 L 10.515625 0 Z M 19.421875 -34.515625 L 19.421875 -36.71875 C 19.421875 -40.488281 18.914062 -43.109375 17.90625 -44.578125 C 16.90625 -46.054688 15.523438 -46.796875 13.765625 -46.796875 L 10.515625 -46.796875 L 10.515625 -24.359375 L 13.765625 -24.359375 C 17.535156 -24.359375 19.421875 -27.742188 19.421875 -34.515625 Z M 19.421875 -34.515625 "/></g></g></g><g fill="#1e90ff" fill-opacity="1"><g transform="translate(336.861451, 186.014419)"><g><path d="M 10.515625 -23.328125 L 10.515625 -4.703125 L 23.328125 -4.703125 L 23.328125 0 L 4.640625 0 L 4.640625 -51.5 L 23.109375 -51.5 L 23.109375 -46.796875 L 10.515625 -46.796875 L 10.515625 -28.03125 L 22 -28.03125 L 22 -23.328125 Z M 10.515625 -23.328125 "/></g></g></g><g fill="#525252" fill-opacity="1"><g transform="translate(126.215774, 214.654073)"><g><path d="M 30.535156 -12.722656 C 30.015625 -13.195312 29.261719 -13.195312 28.792969 -12.675781 C 28.605469 -12.535156 13.335938 3.015625 3.203125 -4.382812 C 0.09375 -6.644531 3.109375 -12.535156 3.15625 -12.582031 C 3.441406 -13.195312 3.203125 -13.902344 2.589844 -14.230469 C 1.980469 -14.515625 1.273438 -14.324219 0.941406 -13.710938 C 0.753906 -13.429688 -3.0625 -5.9375 1.742188 -2.402344 C 3.957031 -0.753906 6.691406 0.140625 9.472656 0.09375 C 19.648438 0.09375 29.96875 -10.414062 30.535156 -10.980469 C 30.769531 -11.214844 30.914062 -11.496094 30.914062 -11.828125 C 30.867188 -12.15625 30.769531 -12.488281 30.535156 -12.722656 Z M 0.425781 -16.445312 C 0.613281 -16.445312 0.800781 -16.492188 0.988281 -16.585938 C 2.121094 -17.152344 3.109375 -17.90625 4.003906 -18.800781 C 4.476562 -19.320312 4.429688 -20.074219 3.957031 -20.546875 C 3.441406 -21.015625 2.6875 -21.015625 2.214844 -20.5 C 1.507812 -19.792969 0.707031 -19.226562 -0.1875 -18.753906 C -0.660156 -18.519531 -0.941406 -17.90625 -0.800781 -17.386719 C -0.660156 -16.824219 -0.140625 -16.445312 0.425781 -16.445312 Z M 0.425781 -16.445312 "/></g></g></g><g fill="#525252" fill-opacity="1"><g transform="translate(155.149368, 214.654073)"><g><path d="M 51.695312 -11.96875 C 51.175781 -12.394531 50.375 -12.300781 49.949219 -11.78125 C 49.855469 -11.640625 39.347656 1.179688 29.6875 -4.429688 C 28.414062 -5.324219 27.425781 -6.550781 26.90625 -7.964844 C 26.011719 -9.753906 24.929688 -11.921875 21.914062 -11.449219 C 20.355469 -11.214844 17.953125 -9.234375 15.925781 -6.972656 C 15.832031 -6.832031 15.644531 -6.785156 15.503906 -6.832031 C 15.363281 -6.878906 15.222656 -6.972656 15.222656 -7.164062 C 14.84375 -9.285156 13.429688 -11.074219 11.449219 -11.921875 C 9.847656 -12.347656 7.257812 -12.816406 1.835938 -7.445312 C 1.554688 -7.210938 1.179688 -7.304688 1.226562 -7.679688 C 1.226562 -7.871094 2.167969 -11.6875 2.167969 -11.6875 C 2.308594 -12.347656 1.886719 -13.007812 1.226562 -13.195312 C 0.566406 -13.335938 -0.09375 -12.910156 -0.28125 -12.253906 L -2.542969 -2.308594 C -2.6875 -1.742188 -2.402344 -1.179688 -1.886719 -0.894531 C -1.320312 -0.660156 -0.707031 -0.800781 -0.378906 -1.273438 C 5.9375 -9.1875 9.046875 -9.941406 10.320312 -9.753906 C 11.59375 -9.519531 13.289062 -6.972656 13.101562 -2.875 C 13.101562 -2.308594 13.429688 -1.789062 13.996094 -1.648438 C 14.5625 -1.460938 15.125 -1.695312 15.410156 -2.167969 C 17.339844 -5.464844 21.109375 -8.8125 22.289062 -9 C 23.421875 -9.1875 23.75 -8.765625 24.691406 -6.878906 C 25.398438 -4.996094 26.71875 -3.394531 28.414062 -2.308594 C 30.394531 -1.132812 32.65625 -0.472656 34.964844 -0.472656 C 43.964844 -0.472656 51.503906 -9.707031 51.882812 -10.226562 C 52.304688 -10.742188 52.210938 -11.546875 51.695312 -11.96875 Z M 51.695312 -11.96875 "/></g></g></g><g fill="#525252" fill-opacity="1"><g transform="translate(204.770001, 214.654073)"><g><path d="M 34.492188 -13.054688 C 33.976562 -13.523438 33.222656 -13.523438 32.703125 -13.054688 C 25.351562 -5.703125 15.03125 -4.757812 10.039062 -6.457031 C 10.648438 -9 10.601562 -11.921875 9.09375 -12.769531 C 8.292969 -13.242188 6.972656 -13.289062 5.464844 -10.742188 C 4.335938 -8.859375 4.757812 -6.878906 6.597656 -5.464844 C 6.691406 -5.371094 6.832031 -5.277344 6.972656 -5.183594 C 6.785156 -4.757812 6.503906 -4.335938 6.171875 -4.003906 C 5.609375 -3.347656 4.570312 -2.589844 2.640625 -3.628906 C 1.226562 -4.335938 0.753906 -5.511719 1.179688 -7.117188 C 1.835938 -9.566406 4.289062 -11.828125 5.136719 -11.78125 C 5.84375 -11.734375 6.363281 -12.300781 6.410156 -12.957031 C 6.410156 -13.664062 5.84375 -14.230469 5.183594 -14.230469 C 5.136719 -14.230469 5.136719 -14.230469 5.136719 -14.230469 C 2.78125 -14.230469 -0.378906 -11.027344 -1.226562 -7.726562 C -1.933594 -4.996094 -0.941406 -2.6875 1.460938 -1.414062 C 2.496094 -0.894531 3.441406 -0.660156 4.382812 -0.660156 C 6.265625 -0.660156 7.917969 -1.742188 9.046875 -3.816406 C 9.09375 -3.910156 9.140625 -4.050781 9.234375 -4.148438 C 15.125 -2.214844 26.339844 -3.203125 34.492188 -11.308594 C 34.964844 -11.78125 34.964844 -12.582031 34.492188 -13.054688 Z M 7.773438 -7.726562 C 7.117188 -8.386719 7.304688 -9 7.585938 -9.472656 C 7.726562 -9.707031 7.824219 -9.847656 7.917969 -9.988281 C 7.964844 -9.425781 7.964844 -8.578125 7.773438 -7.726562 Z M 7.539062 -16.824219 C 7.726562 -16.824219 7.964844 -16.871094 8.152344 -17.011719 C 11.6875 -18.992188 12.394531 -21.394531 12.488281 -22.667969 C 12.582031 -24.175781 12.015625 -25.585938 10.886719 -26.4375 C 10.367188 -26.859375 9.566406 -26.765625 9.140625 -26.246094 C 8.71875 -25.730469 8.8125 -24.929688 9.378906 -24.503906 C 9.707031 -24.222656 10.085938 -23.65625 9.988281 -22.855469 C 9.941406 -22.101562 9.472656 -20.59375 6.925781 -19.132812 C 6.316406 -18.800781 6.125 -18.046875 6.457031 -17.433594 C 6.691406 -17.058594 7.117188 -16.824219 7.539062 -16.824219 Z M 7.539062 -16.824219 "/></g></g></g><g fill="#525252" fill-opacity="1"><g transform="translate(237.520555, 214.654073)"><g><path d="M 41.703125 -11.921875 C 41.46875 -12.15625 41.136719 -12.300781 40.855469 -12.300781 C 40.527344 -12.300781 40.195312 -12.15625 39.960938 -11.921875 C 36.003906 -7.964844 27.898438 -3.910156 21.394531 -4.050781 C 18.800781 -3.957031 16.257812 -4.949219 14.417969 -6.832031 C 14.371094 -6.878906 14.277344 -6.972656 14.230469 -7.070312 C 14.183594 -7.210938 14.183594 -7.351562 14.230469 -7.539062 C 15.171875 -9.1875 15.738281 -11.074219 15.785156 -13.007812 C 15.785156 -13.949219 15.222656 -14.796875 14.324219 -15.171875 C 13.101562 -15.832031 11.496094 -15.503906 10.695312 -14.324219 C 9.613281 -12.769531 9.988281 -9.847656 11.074219 -7.539062 C 11.121094 -7.351562 11.121094 -7.210938 11.074219 -7.019531 C 10.320312 -5.84375 9.425781 -4.804688 8.433594 -3.863281 C 7.445312 -2.96875 6.03125 -2.074219 4.949219 -2.6875 C 2.542969 -4.996094 2.496094 -10.695312 2.6875 -12.675781 C 2.734375 -13.335938 2.261719 -13.949219 1.601562 -13.996094 C 0.941406 -14.089844 0.328125 -13.617188 0.234375 -12.910156 C 0.234375 -12.582031 -0.566406 -4.335938 3.347656 -0.753906 C 3.394531 -0.707031 3.488281 -0.660156 3.535156 -0.660156 C 4.195312 -0.234375 4.949219 0 5.703125 0 C 6.738281 0 7.726562 -0.328125 8.578125 -0.894531 C 9.894531 -1.789062 11.074219 -2.921875 12.0625 -4.195312 C 12.253906 -4.382812 12.535156 -4.523438 12.816406 -4.523438 C 13.101562 -4.523438 13.382812 -4.429688 13.570312 -4.195312 C 15.738281 -2.449219 18.519531 -1.507812 21.347656 -1.554688 C 28.886719 -1.367188 37.414062 -5.890625 41.703125 -10.179688 C 41.941406 -10.414062 42.082031 -10.742188 42.082031 -11.074219 C 42.082031 -11.402344 41.941406 -11.6875 41.703125 -11.921875 Z M 12.863281 -10.554688 C 12.816406 -10.460938 12.675781 -10.460938 12.675781 -10.554688 C 12.441406 -11.308594 12.441406 -12.15625 12.722656 -12.910156 C 12.816406 -13.007812 12.910156 -13.101562 13.054688 -13.101562 C 13.148438 -13.054688 13.242188 -13.007812 13.335938 -12.910156 C 13.335938 -12.0625 13.195312 -11.261719 12.863281 -10.554688 Z M 12.863281 -10.554688 "/></g></g></g><g fill="#525252" fill-opacity="1"><g transform="translate(277.103963, 214.654073)"><g><path d="M 39.535156 -12.109375 C 39.300781 -12.347656 39.019531 -12.535156 38.6875 -12.535156 C 38.359375 -12.582031 38.027344 -12.488281 37.792969 -12.300781 C 37.605469 -12.15625 19.460938 2.261719 4.335938 -3.957031 C 1.273438 -5.230469 1.132812 -6.878906 1.226562 -7.773438 C 1.226562 -7.917969 1.273438 -8.058594 1.414062 -8.152344 C 1.507812 -8.246094 1.695312 -8.246094 1.835938 -8.199219 C 4.902344 -8.011719 7.964844 -8.8125 10.601562 -10.460938 C 12.863281 -11.921875 13.242188 -13.523438 13.101562 -14.5625 C 13.007812 -16.257812 11.640625 -17.625 9.894531 -17.671875 C 6.171875 -17.859375 -0.046875 -13.429688 -1.082031 -8.71875 C -1.507812 -6.972656 -1.460938 -3.675781 3.394531 -1.695312 C 6.363281 -0.472656 9.472656 0.09375 12.628906 0.09375 C 26.152344 0.09375 38.6875 -9.847656 39.347656 -10.367188 C 39.582031 -10.554688 39.773438 -10.886719 39.773438 -11.167969 C 39.820312 -11.496094 39.726562 -11.828125 39.535156 -12.109375 Z M 2.921875 -11.074219 C 4.757812 -13.617188 7.824219 -15.316406 9.753906 -15.171875 C 10.273438 -15.171875 10.554688 -14.984375 10.648438 -14.277344 C 10.695312 -13.808594 10.179688 -13.148438 9.234375 -12.535156 C 7.304688 -11.261719 1.507812 -9.1875 2.921875 -11.074219 Z M 2.921875 -11.074219 "/></g></g></g><g fill="#525252" fill-opacity="1"><g transform="translate(314.849572, 214.654073)"><g><path d="M 30.535156 -12.722656 C 30.015625 -13.195312 29.261719 -13.195312 28.792969 -12.675781 C 28.605469 -12.535156 13.335938 3.015625 3.203125 -4.382812 C 0.09375 -6.644531 3.109375 -12.535156 3.15625 -12.582031 C 3.441406 -13.195312 3.203125 -13.902344 2.589844 -14.230469 C 1.980469 -14.515625 1.273438 -14.324219 0.941406 -13.710938 C 0.753906 -13.429688 -3.0625 -5.9375 1.742188 -2.402344 C 3.957031 -0.753906 6.691406 0.140625 9.472656 0.09375 C 19.648438 0.09375 29.96875 -10.414062 30.535156 -10.980469 C 30.769531 -11.214844 30.914062 -11.496094 30.914062 -11.828125 C 30.867188 -12.15625 30.769531 -12.488281 30.535156 -12.722656 Z M 0.425781 -16.445312 C 0.613281 -16.445312 0.800781 -16.492188 0.988281 -16.585938 C 2.121094 -17.152344 3.109375 -17.90625 4.003906 -18.800781 C 4.476562 -19.320312 4.429688 -20.074219 3.957031 -20.546875 C 3.441406 -21.015625 2.6875 -21.015625 2.214844 -20.5 C 1.507812 -19.792969 0.707031 -19.226562 -0.1875 -18.753906 C -0.660156 -18.519531 -0.941406 -17.90625 -0.800781 -17.386719 C -0.660156 -16.824219 -0.140625 -16.445312 0.425781 -16.445312 Z M 0.425781 -16.445312 "/></g></g></g><g clip-path="url(#d7d4a60a85)"><g fill="#525252" fill-opacity="1"><g transform="translate(343.783167, 214.654073)"><g><path d="M 32.328125 -13.054688 C 32.089844 -13.289062 31.808594 -13.382812 31.476562 -13.382812 C 31.148438 -13.382812 30.820312 -13.289062 30.582031 -13.054688 C 26.058594 -8.765625 20.5 -5.75 14.417969 -4.289062 C 14.183594 -4.195312 13.902344 -4.289062 13.761719 -4.476562 C 13.617188 -4.710938 13.570312 -4.949219 13.710938 -5.183594 C 14.5625 -6.832031 14.371094 -8.8125 13.289062 -10.320312 C 12.628906 -11.214844 11.78125 -11.96875 10.792969 -12.535156 C 9.472656 -13.429688 8.011719 -14.464844 7.964844 -15.550781 C 8.011719 -16.164062 8.246094 -16.730469 8.671875 -17.199219 L 11.214844 -19.601562 C 11.6875 -20.074219 11.734375 -20.828125 11.308594 -21.300781 C 10.886719 -21.816406 10.179688 -21.914062 9.613281 -21.488281 C 8.625 -20.734375 7.679688 -19.886719 6.878906 -18.894531 L -0.378906 -12.109375 C -0.707031 -11.828125 -0.847656 -11.355469 -0.753906 -10.933594 C -0.660156 -10.460938 -0.328125 -10.132812 0.09375 -9.988281 C 0.519531 -9.894531 0.988281 -9.988281 1.320312 -10.320312 L 4.902344 -13.664062 C 5.089844 -13.855469 5.324219 -13.902344 5.558594 -13.902344 C 5.796875 -13.855469 5.984375 -13.710938 6.078125 -13.523438 C 6.972656 -12.300781 8.105469 -11.261719 9.378906 -10.507812 C 10.085938 -10.085938 10.695312 -9.613281 11.214844 -9 C 11.6875 -8.480469 11.921875 -7.773438 11.78125 -7.070312 C 11.640625 -6.363281 11.214844 -5.75 10.601562 -5.417969 C 7.585938 -3.722656 3.769531 -4.523438 1.695312 -7.304688 C 1.367188 -7.824219 0.613281 -8.011719 0.046875 -7.632812 C -0.519531 -7.304688 -0.707031 -6.597656 -0.378906 -5.984375 C 1.179688 -3.296875 3.957031 -1.554688 7.070312 -1.320312 C 7.871094 -1.179688 8.625 -1.132812 9.425781 -1.132812 C 17.386719 -1.132812 27.191406 -6.125 32.328125 -11.308594 C 32.796875 -11.78125 32.796875 -12.582031 32.328125 -13.054688 Z M 32.328125 -13.054688 "/></g></g></g></g></svg>